# xmcd
#
# Track frame offsets:
#	150
#	17222
#	32110
#	47755
#	64175
#	78667
#	94035
#	111820
#	127785
#	143210
#	156025
#	175255
#	192130
#	212160
#	223900
#	242137
#	255160
#	272450
#
# Disc length: 3826 seconds
#
# Revision: 0
# Processed by: cddbd v1.5.2PL0 Copyright (c) Steve Scherf et al.
# Submitted via: EasyCDDAExtractor 11.0.2.1
#
DISCID=fa0ef012
DTITLE=Various Artist - Chão Batido Vol 2
DYEAR=1900
DGENRE=Gaucha
TTITLE0=Grupo Reponte - Fandango da Saudade
TTITLE1=Grupo Renascença - No balanço da vanera
TTITLE2=Xirú Missioneiro - Fronteira Aberta
TTITLE3=Chiquito e Grupo Rodeio - Segredos da minha gaita
TTITLE4=Os Lendários - Bugio da Querência
TTITLE5=Grupo Raízes - Carreirada em cancha reta
TTITLE6=De Lima e Leninha - Vanera da Bossoroca
TTITLE7=Candeeiro - Tio juvêncio
TTITLE8=Beto Mayer - Ginetaço
TTITLE9=Os Campeiros - Madrugada Serena
TTITLE10=Leonardo - Gauchadas
TTITLE11=Os Mateadores - Retoço de Gaita e Pandeiro
TTITLE12=Porca Véia - Conversa fiado
TTITLE13=Adriana Gobbi - Voz do vento
TTITLE14=Os Tiranos - O Peão e a Estrela
TTITLE15=Os Nativos - Tio Amadeus
TTITLE16=Grupo Rodeio - Baile debaixo da lua
TTITLE17=Jayme Caetano Braun - Pra ti Guria
EXTD=
EXTT0=
EXTT1=
EXTT2=
EXTT3=
EXTT4=
EXTT5=
EXTT6=
EXTT7=
EXTT8=
EXTT9=
EXTT10=
EXTT11=
EXTT12=
EXTT13=
EXTT14=
EXTT15=
EXTT16=
EXTT17=
PLAYORDER=
